name rise35.5848peak51.9257fall54.8793.mot
datacolumns 19
datarows 11
range 5.10997400000000 5.12664600000000
endheader
time	ground_force1_vx	ground_force1_vy	ground_force1_vz	ground_force1_px	ground_force1_py	ground_force1_pz	ground_force2_vx	ground_force2_vy	ground_force2_vz	ground_force2_px	ground_force2_py	ground_force2_pz	ground_torque1_x	ground_torque1_y	ground_torque1_z	ground_torque2_x	ground_torque2_y	ground_torque2_z	
5.10997400000000	-5.26083400000000	41.90262900000000	-8.69436900000000	0.33087800000000	0.00000000000000	0.10621000000000	-50.46436500000000	798.15527899999995	-46.88083300000000	0.13481400000000	0.00000000000000	-0.07180800000000	0.00000000000000	-5.92861700000000	0.00000000000000	0.00000000000000	-19.75939600000000	0.00000000000000	
5.11164700000000	-5.74443100000000	49.32522000000000	-9.78253500000000	0.33575700000000	0.00000000000000	0.10703000000000	-51.41030200000000	795.75900100000001	-46.57821100000000	0.13387700000000	0.00000000000000	-0.07170000000000	0.00000000000000	-6.74236900000000	0.00000000000000	0.00000000000000	-19.72542100000000	0.00000000000000	
5.11330900000000	-6.11852900000000	56.89704000000000	-10.77320500000000	0.34006800000000	0.00000000000000	0.10776100000000	-52.37262300000000	793.20382099999995	-46.26030500000000	0.13293800000000	0.00000000000000	-0.07159000000000	0.00000000000000	-7.50234300000000	0.00000000000000	0.00000000000000	-19.69242700000000	0.00000000000000	
5.11497200000000	-6.36741000000000	64.52498900000001	-11.64329800000000	0.34391000000000	0.00000000000000	0.10842000000000	-53.35002000000000	790.48584200000005	-45.92690700000000	0.13199600000000	0.00000000000000	-0.07147700000000	0.00000000000000	-8.19163900000000	0.00000000000000	0.00000000000000	-19.66027000000000	0.00000000000000	
5.11664500000000	-6.48127500000000	72.13728900000000	-12.37742700000000	0.34735800000000	0.00000000000000	0.10901700000000	-54.34105400000000	787.60118299999999	-45.57782200000000	0.13105200000000	0.00000000000000	-0.07136200000000	0.00000000000000	-8.79859400000000	0.00000000000000	0.00000000000000	-19.62878900000000	0.00000000000000	
5.11830600000000	-6.45617700000000	79.68588400000000	-12.96800100000000	0.35047500000000	0.00000000000000	0.10956400000000	-55.34415800000000	784.54599199999996	-45.21286700000000	0.13010600000000	0.00000000000000	-0.07124500000000	0.00000000000000	-9.31694400000000	0.00000000000000	0.00000000000000	-19.59779900000000	0.00000000000000	
5.11997400000000	-6.29349500000000	87.14649500000000	-13.41468600000000	0.35330800000000	0.00000000000000	0.11006600000000	-56.35763800000000	781.31645600000002	-44.83187400000000	0.12915800000000	0.00000000000000	-0.07112600000000	0.00000000000000	-9.74552900000000	0.00000000000000	0.00000000000000	-19.56709800000000	0.00000000000000	
5.12164500000000	-5.99906200000000	94.51669400000000	-13.72335200000000	0.35589900000000	0.00000000000000	0.11053200000000	-57.37967300000000	777.90881800000000	-44.43469100000000	0.12820900000000	0.00000000000000	-0.07100400000000	0.00000000000000	-10.08761500000000	0.00000000000000	0.00000000000000	-19.53646700000000	0.00000000000000	
5.12330600000000	-5.58209100000000	101.81251899999999	-13.90470100000000	0.35828100000000	0.00000000000000	0.11096400000000	-58.40832200000000	774.31938800000000	-44.02118600000000	0.12725900000000	0.00000000000000	-0.07088000000000	0.00000000000000	-10.34998200000000	0.00000000000000	0.00000000000000	-19.50566500000000	0.00000000000000	
5.12498100000000	-5.05400700000000	109.06415800000001	-13.97273200000000	0.36048000000000	0.00000000000000	0.11136800000000	-59.44152400000000	770.54456200000004	-43.59124900000000	0.12630800000000	0.00000000000000	-0.07075400000000	0.00000000000000	-10.54186500000000	0.00000000000000	0.00000000000000	-19.47443800000000	0.00000000000000	
5.12664600000000	-4.42731500000000	116.31121600000000	-13.94320700000000	0.36252000000000	0.00000000000000	0.11174700000000	-60.47710400000000	766.58083699999997	-43.14479200000000	0.12535600000000	0.00000000000000	-0.07062600000000	0.00000000000000	-10.67388400000000	0.00000000000000	0.00000000000000	-19.44251300000000	0.00000000000000	
